<svg width="141" height="143" viewBox="0 0 141 143" fill="none" xmlns="http://www.w3.org/2000/svg">
<path d="M132 101.709C132 119.452 117.616 133.836 99.8731 133.836H41.1269C23.3837 133.836 9 119.452 9 101.709V41.1269C9 23.3837 23.3837 9 41.1269 9H99.8731C117.616 9 132 23.3837 132 41.1269V101.709Z" fill="#FF7900"/>
<path d="M76.0449 85.8584L87.9395 91.4639L56.6387 119.969L64.9561 102.318L53.0625 96.7129L84.3633 68.209L76.0449 85.8584Z" fill="white"/>
<path d="M94.0986 33.7832C98.3026 33.7832 101.711 36.6604 101.711 40.209C101.711 43.7574 98.3024 46.6338 94.0986 46.6338H46.9053C42.7015 46.6338 39.2932 43.7574 39.293 40.209C39.293 36.6604 42.7013 33.7832 46.9053 33.7832H94.0986Z" fill="white"/>
<path fill-rule="evenodd" clip-rule="evenodd" d="M97.7666 24.6035C106.026 24.6035 112.722 31.5899 112.722 40.208C112.722 48.8261 106.026 55.8125 97.7666 55.8125H43.2275C34.9686 55.8124 28.2734 48.826 28.2734 40.208C28.2734 31.59 34.9686 24.6036 43.2275 24.6035H97.7666ZM43.2275 29.1934C37.3977 29.1935 32.6719 34.1247 32.6719 40.208C32.6719 46.2913 37.3977 51.2225 43.2275 51.2227H97.7666C103.596 51.2227 108.323 46.2914 108.323 40.208C108.323 34.1246 103.596 29.1934 97.7666 29.1934H43.2275Z" fill="white"/>
</svg>